<svg xmlns="http://www.w3.org/2000/svg" width="820" height="720" viewBox="0 0 820 720" role="img" aria-labelledby="title desc">
<title id="title">Quadratic pattern in original input</title>
<desc id="desc">Noisy observations form a U-shaped pattern when y is plotted against the original input x.</desc>
<rect width="820" height="720" fill="#fff"/>
<text x="410.0" y="52.0" text-anchor="middle" font-family="Arial, Helvetica, sans-serif" font-size="26" font-weight="bold" fill="#172033">A curved pattern in the original input</text><text x="410.0" y="86.0" text-anchor="middle" font-family="Arial, Helvetica, sans-serif" font-size="17" font-weight="normal" fill="#526174">The same values of y can occur at negative and positive x</text><rect x="155" y="115" width="520" height="465" fill="#fff"/><path d="M155.0 115V580" stroke="#e8edf3" stroke-width="1"/><text x="155.0" y="606.0" text-anchor="middle" font-family="Arial, Helvetica, sans-serif" font-size="15" font-weight="normal" fill="#526174">-5</text><path d="M285.0 115V580" stroke="#e8edf3" stroke-width="1"/><text x="285.0" y="606.0" text-anchor="middle" font-family="Arial, Helvetica, sans-serif" font-size="15" font-weight="normal" fill="#526174">-2.5</text><path d="M415.0 115V580" stroke="#e8edf3" stroke-width="1"/><text x="415.0" y="606.0" text-anchor="middle" font-family="Arial, Helvetica, sans-serif" font-size="15" font-weight="normal" fill="#526174">0</text><path d="M545.0 115V580" stroke="#e8edf3" stroke-width="1"/><text x="545.0" y="606.0" text-anchor="middle" font-family="Arial, Helvetica, sans-serif" font-size="15" font-weight="normal" fill="#526174">2.5</text><path d="M675.0 115V580" stroke="#e8edf3" stroke-width="1"/><text x="675.0" y="606.0" text-anchor="middle" font-family="Arial, Helvetica, sans-serif" font-size="15" font-weight="normal" fill="#526174">5</text><path d="M155 580.0H675" stroke="#e8edf3" stroke-width="1"/><text x="142.0" y="585.0" text-anchor="end" font-family="Arial, Helvetica, sans-serif" font-size="15" font-weight="normal" fill="#526174">0</text><path d="M155 513.6H675" stroke="#e8edf3" stroke-width="1"/><text x="142.0" y="518.6" text-anchor="end" font-family="Arial, Helvetica, sans-serif" font-size="15" font-weight="normal" fill="#526174">5</text><path d="M155 447.1H675" stroke="#e8edf3" stroke-width="1"/><text x="142.0" y="452.1" text-anchor="end" font-family="Arial, Helvetica, sans-serif" font-size="15" font-weight="normal" fill="#526174">10</text><path d="M155 380.7H675" stroke="#e8edf3" stroke-width="1"/><text x="142.0" y="385.7" text-anchor="end" font-family="Arial, Helvetica, sans-serif" font-size="15" font-weight="normal" fill="#526174">15</text><path d="M155 314.3H675" stroke="#e8edf3" stroke-width="1"/><text x="142.0" y="319.3" text-anchor="end" font-family="Arial, Helvetica, sans-serif" font-size="15" font-weight="normal" fill="#526174">20</text><path d="M155 247.9H675" stroke="#e8edf3" stroke-width="1"/><text x="142.0" y="252.9" text-anchor="end" font-family="Arial, Helvetica, sans-serif" font-size="15" font-weight="normal" fill="#526174">25</text><path d="M155 181.4H675" stroke="#e8edf3" stroke-width="1"/><text x="142.0" y="186.4" text-anchor="end" font-family="Arial, Helvetica, sans-serif" font-size="15" font-weight="normal" fill="#526174">30</text><path d="M155 115.0H675" stroke="#e8edf3" stroke-width="1"/><text x="142.0" y="120.0" text-anchor="end" font-family="Arial, Helvetica, sans-serif" font-size="15" font-weight="normal" fill="#526174">35</text><path d="M159.6 205.8l6.4 6.4m0-6.4l-6.4 6.4" stroke="#2563eb" stroke-width="1.5" stroke-linecap="round"/><path d="M159.7 232.8l6.4 6.4m0-6.4l-6.4 6.4" stroke="#2563eb" stroke-width="1.5" stroke-linecap="round"/><path d="M161.4 226.8l6.4 6.4m0-6.4l-6.4 6.4" stroke="#2563eb" stroke-width="1.5" stroke-linecap="round"/><path d="M169.6 250.4l6.4 6.4m0-6.4l-6.4 6.4" stroke="#2563eb" stroke-width="1.5" stroke-linecap="round"/><path d="M172.3 257.7l6.4 6.4m0-6.4l-6.4 6.4" stroke="#2563eb" stroke-width="1.5" stroke-linecap="round"/><path d="M180.7 309.6l6.4 6.4m0-6.4l-6.4 6.4" stroke="#2563eb" stroke-width="1.5" stroke-linecap="round"/><path d="M184.7 210.3l6.4 6.4m0-6.4l-6.4 6.4" stroke="#2563eb" stroke-width="1.5" stroke-linecap="round"/><path d="M188.7 346.6l6.4 6.4m0-6.4l-6.4 6.4" stroke="#2563eb" stroke-width="1.5" stroke-linecap="round"/><path d="M196.1 245.1l6.4 6.4m0-6.4l-6.4 6.4" stroke="#2563eb" stroke-width="1.5" stroke-linecap="round"/><path d="M201.3 316.5l6.4 6.4m0-6.4l-6.4 6.4" stroke="#2563eb" stroke-width="1.5" stroke-linecap="round"/><path d="M206.2 300.3l6.4 6.4m0-6.4l-6.4 6.4" stroke="#2563eb" stroke-width="1.5" stroke-linecap="round"/><path d="M213.9 330.4l6.4 6.4m0-6.4l-6.4 6.4" stroke="#2563eb" stroke-width="1.5" stroke-linecap="round"/><path d="M219.8 322.2l6.4 6.4m0-6.4l-6.4 6.4" stroke="#2563eb" stroke-width="1.5" stroke-linecap="round"/><path d="M222.8 319.5l6.4 6.4m0-6.4l-6.4 6.4" stroke="#2563eb" stroke-width="1.5" stroke-linecap="round"/><path d="M229.4 396.8l6.4 6.4m0-6.4l-6.4 6.4" stroke="#2563eb" stroke-width="1.5" stroke-linecap="round"/><path d="M236.8 317.3l6.4 6.4m0-6.4l-6.4 6.4" stroke="#2563eb" stroke-width="1.5" stroke-linecap="round"/><path d="M239.5 360.3l6.4 6.4m0-6.4l-6.4 6.4" stroke="#2563eb" stroke-width="1.5" stroke-linecap="round"/><path d="M244.0 383.5l6.4 6.4m0-6.4l-6.4 6.4" stroke="#2563eb" stroke-width="1.5" stroke-linecap="round"/><path d="M252.1 371.4l6.4 6.4m0-6.4l-6.4 6.4" stroke="#2563eb" stroke-width="1.5" stroke-linecap="round"/><path d="M259.2 452.3l6.4 6.4m0-6.4l-6.4 6.4" stroke="#2563eb" stroke-width="1.5" stroke-linecap="round"/><path d="M264.1 410.3l6.4 6.4m0-6.4l-6.4 6.4" stroke="#2563eb" stroke-width="1.5" stroke-linecap="round"/><path d="M270.0 362.7l6.4 6.4m0-6.4l-6.4 6.4" stroke="#2563eb" stroke-width="1.5" stroke-linecap="round"/><path d="M271.6 432.6l6.4 6.4m0-6.4l-6.4 6.4" stroke="#2563eb" stroke-width="1.5" stroke-linecap="round"/><path d="M277.4 421.4l6.4 6.4m0-6.4l-6.4 6.4" stroke="#2563eb" stroke-width="1.5" stroke-linecap="round"/><path d="M284.5 470.0l6.4 6.4m0-6.4l-6.4 6.4" stroke="#2563eb" stroke-width="1.5" stroke-linecap="round"/><path d="M288.4 507.2l6.4 6.4m0-6.4l-6.4 6.4" stroke="#2563eb" stroke-width="1.5" stroke-linecap="round"/><path d="M295.7 390.8l6.4 6.4m0-6.4l-6.4 6.4" stroke="#2563eb" stroke-width="1.5" stroke-linecap="round"/><path d="M301.3 449.4l6.4 6.4m0-6.4l-6.4 6.4" stroke="#2563eb" stroke-width="1.5" stroke-linecap="round"/><path d="M305.5 468.8l6.4 6.4m0-6.4l-6.4 6.4" stroke="#2563eb" stroke-width="1.5" stroke-linecap="round"/><path d="M312.9 476.9l6.4 6.4m0-6.4l-6.4 6.4" stroke="#2563eb" stroke-width="1.5" stroke-linecap="round"/><path d="M318.5 506.5l6.4 6.4m0-6.4l-6.4 6.4" stroke="#2563eb" stroke-width="1.5" stroke-linecap="round"/><path d="M322.8 433.6l6.4 6.4m0-6.4l-6.4 6.4" stroke="#2563eb" stroke-width="1.5" stroke-linecap="round"/><path d="M328.7 461.1l6.4 6.4m0-6.4l-6.4 6.4" stroke="#2563eb" stroke-width="1.5" stroke-linecap="round"/><path d="M332.9 495.8l6.4 6.4m0-6.4l-6.4 6.4" stroke="#2563eb" stroke-width="1.5" stroke-linecap="round"/><path d="M340.2 537.6l6.4 6.4m0-6.4l-6.4 6.4" stroke="#2563eb" stroke-width="1.5" stroke-linecap="round"/><path d="M344.2 458.2l6.4 6.4m0-6.4l-6.4 6.4" stroke="#2563eb" stroke-width="1.5" stroke-linecap="round"/><path d="M350.3 455.4l6.4 6.4m0-6.4l-6.4 6.4" stroke="#2563eb" stroke-width="1.5" stroke-linecap="round"/><path d="M355.6 477.6l6.4 6.4m0-6.4l-6.4 6.4" stroke="#2563eb" stroke-width="1.5" stroke-linecap="round"/><path d="M361.8 491.7l6.4 6.4m0-6.4l-6.4 6.4" stroke="#2563eb" stroke-width="1.5" stroke-linecap="round"/><path d="M369.8 504.2l6.4 6.4m0-6.4l-6.4 6.4" stroke="#2563eb" stroke-width="1.5" stroke-linecap="round"/><path d="M374.1 483.0l6.4 6.4m0-6.4l-6.4 6.4" stroke="#2563eb" stroke-width="1.5" stroke-linecap="round"/><path d="M379.0 534.1l6.4 6.4m0-6.4l-6.4 6.4" stroke="#2563eb" stroke-width="1.5" stroke-linecap="round"/><path d="M383.7 517.3l6.4 6.4m0-6.4l-6.4 6.4" stroke="#2563eb" stroke-width="1.5" stroke-linecap="round"/><path d="M388.8 488.2l6.4 6.4m0-6.4l-6.4 6.4" stroke="#2563eb" stroke-width="1.5" stroke-linecap="round"/><path d="M394.2 536.7l6.4 6.4m0-6.4l-6.4 6.4" stroke="#2563eb" stroke-width="1.5" stroke-linecap="round"/><path d="M402.1 446.2l6.4 6.4m0-6.4l-6.4 6.4" stroke="#2563eb" stroke-width="1.5" stroke-linecap="round"/><path d="M406.9 479.9l6.4 6.4m0-6.4l-6.4 6.4" stroke="#2563eb" stroke-width="1.5" stroke-linecap="round"/><path d="M412.0 501.2l6.4 6.4m0-6.4l-6.4 6.4" stroke="#2563eb" stroke-width="1.5" stroke-linecap="round"/><path d="M418.2 541.3l6.4 6.4m0-6.4l-6.4 6.4" stroke="#2563eb" stroke-width="1.5" stroke-linecap="round"/><path d="M424.8 482.0l6.4 6.4m0-6.4l-6.4 6.4" stroke="#2563eb" stroke-width="1.5" stroke-linecap="round"/><path d="M427.3 540.7l6.4 6.4m0-6.4l-6.4 6.4" stroke="#2563eb" stroke-width="1.5" stroke-linecap="round"/><path d="M433.1 466.8l6.4 6.4m0-6.4l-6.4 6.4" stroke="#2563eb" stroke-width="1.5" stroke-linecap="round"/><path d="M440.5 504.8l6.4 6.4m0-6.4l-6.4 6.4" stroke="#2563eb" stroke-width="1.5" stroke-linecap="round"/><path d="M444.8 495.2l6.4 6.4m0-6.4l-6.4 6.4" stroke="#2563eb" stroke-width="1.5" stroke-linecap="round"/><path d="M448.5 484.9l6.4 6.4m0-6.4l-6.4 6.4" stroke="#2563eb" stroke-width="1.5" stroke-linecap="round"/><path d="M456.2 552.4l6.4 6.4m0-6.4l-6.4 6.4" stroke="#2563eb" stroke-width="1.5" stroke-linecap="round"/><path d="M463.5 484.0l6.4 6.4m0-6.4l-6.4 6.4" stroke="#2563eb" stroke-width="1.5" stroke-linecap="round"/><path d="M465.6 458.3l6.4 6.4m0-6.4l-6.4 6.4" stroke="#2563eb" stroke-width="1.5" stroke-linecap="round"/><path d="M470.5 483.6l6.4 6.4m0-6.4l-6.4 6.4" stroke="#2563eb" stroke-width="1.5" stroke-linecap="round"/><path d="M480.2 491.5l6.4 6.4m0-6.4l-6.4 6.4" stroke="#2563eb" stroke-width="1.5" stroke-linecap="round"/><path d="M484.0 483.1l6.4 6.4m0-6.4l-6.4 6.4" stroke="#2563eb" stroke-width="1.5" stroke-linecap="round"/><path d="M491.2 484.5l6.4 6.4m0-6.4l-6.4 6.4" stroke="#2563eb" stroke-width="1.5" stroke-linecap="round"/><path d="M496.2 456.1l6.4 6.4m0-6.4l-6.4 6.4" stroke="#2563eb" stroke-width="1.5" stroke-linecap="round"/><path d="M498.6 457.9l6.4 6.4m0-6.4l-6.4 6.4" stroke="#2563eb" stroke-width="1.5" stroke-linecap="round"/><path d="M505.9 415.6l6.4 6.4m0-6.4l-6.4 6.4" stroke="#2563eb" stroke-width="1.5" stroke-linecap="round"/><path d="M511.4 433.0l6.4 6.4m0-6.4l-6.4 6.4" stroke="#2563eb" stroke-width="1.5" stroke-linecap="round"/><path d="M517.9 454.2l6.4 6.4m0-6.4l-6.4 6.4" stroke="#2563eb" stroke-width="1.5" stroke-linecap="round"/><path d="M522.2 404.1l6.4 6.4m0-6.4l-6.4 6.4" stroke="#2563eb" stroke-width="1.5" stroke-linecap="round"/><path d="M528.7 520.3l6.4 6.4m0-6.4l-6.4 6.4" stroke="#2563eb" stroke-width="1.5" stroke-linecap="round"/><path d="M535.1 385.8l6.4 6.4m0-6.4l-6.4 6.4" stroke="#2563eb" stroke-width="1.5" stroke-linecap="round"/><path d="M540.6 439.5l6.4 6.4m0-6.4l-6.4 6.4" stroke="#2563eb" stroke-width="1.5" stroke-linecap="round"/><path d="M542.9 409.3l6.4 6.4m0-6.4l-6.4 6.4" stroke="#2563eb" stroke-width="1.5" stroke-linecap="round"/><path d="M548.4 395.1l6.4 6.4m0-6.4l-6.4 6.4" stroke="#2563eb" stroke-width="1.5" stroke-linecap="round"/><path d="M557.4 413.0l6.4 6.4m0-6.4l-6.4 6.4" stroke="#2563eb" stroke-width="1.5" stroke-linecap="round"/><path d="M559.9 421.5l6.4 6.4m0-6.4l-6.4 6.4" stroke="#2563eb" stroke-width="1.5" stroke-linecap="round"/><path d="M565.8 412.3l6.4 6.4m0-6.4l-6.4 6.4" stroke="#2563eb" stroke-width="1.5" stroke-linecap="round"/><path d="M573.4 443.0l6.4 6.4m0-6.4l-6.4 6.4" stroke="#2563eb" stroke-width="1.5" stroke-linecap="round"/><path d="M576.5 427.5l6.4 6.4m0-6.4l-6.4 6.4" stroke="#2563eb" stroke-width="1.5" stroke-linecap="round"/><path d="M582.2 352.9l6.4 6.4m0-6.4l-6.4 6.4" stroke="#2563eb" stroke-width="1.5" stroke-linecap="round"/><path d="M591.1 350.3l6.4 6.4m0-6.4l-6.4 6.4" stroke="#2563eb" stroke-width="1.5" stroke-linecap="round"/><path d="M594.7 380.2l6.4 6.4m0-6.4l-6.4 6.4" stroke="#2563eb" stroke-width="1.5" stroke-linecap="round"/><path d="M601.1 337.5l6.4 6.4m0-6.4l-6.4 6.4" stroke="#2563eb" stroke-width="1.5" stroke-linecap="round"/><path d="M606.3 327.5l6.4 6.4m0-6.4l-6.4 6.4" stroke="#2563eb" stroke-width="1.5" stroke-linecap="round"/><path d="M609.4 319.4l6.4 6.4m0-6.4l-6.4 6.4" stroke="#2563eb" stroke-width="1.5" stroke-linecap="round"/><path d="M618.0 313.9l6.4 6.4m0-6.4l-6.4 6.4" stroke="#2563eb" stroke-width="1.5" stroke-linecap="round"/><path d="M620.8 328.1l6.4 6.4m0-6.4l-6.4 6.4" stroke="#2563eb" stroke-width="1.5" stroke-linecap="round"/><path d="M626.6 316.9l6.4 6.4m0-6.4l-6.4 6.4" stroke="#2563eb" stroke-width="1.5" stroke-linecap="round"/><path d="M631.9 330.7l6.4 6.4m0-6.4l-6.4 6.4" stroke="#2563eb" stroke-width="1.5" stroke-linecap="round"/><path d="M637.8 266.9l6.4 6.4m0-6.4l-6.4 6.4" stroke="#2563eb" stroke-width="1.5" stroke-linecap="round"/><path d="M644.4 185.7l6.4 6.4m0-6.4l-6.4 6.4" stroke="#2563eb" stroke-width="1.5" stroke-linecap="round"/><path d="M651.7 241.4l6.4 6.4m0-6.4l-6.4 6.4" stroke="#2563eb" stroke-width="1.5" stroke-linecap="round"/><path d="M655.5 192.0l6.4 6.4m0-6.4l-6.4 6.4" stroke="#2563eb" stroke-width="1.5" stroke-linecap="round"/><path d="M662.8 233.5l6.4 6.4m0-6.4l-6.4 6.4" stroke="#2563eb" stroke-width="1.5" stroke-linecap="round"/><path d="M664.0 199.7l6.4 6.4m0-6.4l-6.4 6.4" stroke="#2563eb" stroke-width="1.5" stroke-linecap="round"/><path d="M664.0 243.7l6.4 6.4m0-6.4l-6.4 6.4" stroke="#2563eb" stroke-width="1.5" stroke-linecap="round"/><rect x="155" y="115" width="520" height="465" fill="none" stroke="#9eacbc" stroke-width="1.5"/><text x="415.0" y="640.0" text-anchor="middle" font-family="Arial, Helvetica, sans-serif" font-size="22" font-weight="normal" fill="#172033">x</text><g transform="translate(93 347.5) rotate(-90)"><text x="0.0" y="0.0" text-anchor="middle" font-family="Arial, Helvetica, sans-serif" font-size="22" font-weight="normal" fill="#172033">y</text></g><path d="M337 674l12 12m0-12-12 12" stroke="#2563eb" stroke-width="2" stroke-linecap="round"/><text x="369.0" y="688.0" text-anchor="start" font-family="Arial, Helvetica, sans-serif" font-size="17" font-weight="normal" fill="#526174">Observed examples</text>
</svg>
