<svg xmlns="http://www.w3.org/2000/svg" width="1280" height="640" viewBox="0 0 1280 640" role="img" aria-labelledby="title desc">
<title id="title">The same linear classifier in 3D and 2D</title>
<desc id="desc">The left panel plots the predicted class as a height of plus one or minus one above the x one and x two plane. The right panel shows the same eight examples and the decision boundary x one equals x two from above.</desc>
<defs><marker id="arrow" markerWidth="9" markerHeight="9" refX="7" refY="4.5" orient="auto"><path d="M0 0 L9 4.5 L0 9 Z" fill="#34475b"/></marker></defs>
<rect width="1280" height="640" rx="22" fill="#f4f7fa"/>
<rect x="24" y="24" width="600" height="552" rx="18" fill="#fff" stroke="#d8e1e9"/>
<rect x="656" y="24" width="600" height="552" rx="18" fill="#fff" stroke="#d8e1e9"/>
<g font-family="Arial, Helvetica, sans-serif" fill="#172533">
<text x="54" y="69" font-size="27" font-weight="700">3D view: predicted class as height</text>
<text x="54" y="101" font-size="18" fill="#526273">The surface jumps between −1 and +1 at the boundary.</text>
<text x="686" y="69" font-size="27" font-weight="700">2D view: the same boundary from above</text>
<text x="686" y="101" font-size="18" fill="#526273">The dashed line is x₁ = x₂.</text>
</g>
<g transform="translate(-84 0)">
<polygon points="375.0,360.0 605.0,435.0 465.0,510.0 235.0,435.0" fill="#f8fafc" stroke="#c8d4df" stroke-width="2"/>
<polygon points="375.0,360.0 235.0,435.0 465.0,510.0" fill="#f9deda" stroke="#c75349" stroke-width="2.5"/>
<polygon points="375.0,180.0 465.0,330.0 465.0,510.0 375.0,360.0" fill="#e3e9f0" stroke="#8193a5" stroke-width="2"/>
<polygon points="375.0,180.0 605.0,255.0 465.0,330.0" fill="#dcebf9" stroke="#2773a7" stroke-width="2.5"/>
<line x1="375" y1="360" x2="610" y2="437" stroke="#34475b" stroke-width="2.5" marker-end="url(#arrow)"/>
<line x1="375" y1="360" x2="230" y2="438" stroke="#34475b" stroke-width="2.5" marker-end="url(#arrow)"/>
<line x1="375" y1="360" x2="375" y2="172" stroke="#34475b" stroke-width="2.5" marker-end="url(#arrow)"/>
<g font-family="Arial, Helvetica, sans-serif" font-size="19" fill="#172533">
<text x="605" y="467">x₁</text><text x="204" y="460">x₂</text>
<text x="345" y="161">h</text>
<text x="533" y="223" fill="#215f8b" font-weight="700">+1</text>
<text x="241" y="466" fill="#ad3f38" font-weight="700">−1</text>
</g>
<line x1="429.5" y1="385.8" x2="435.5" y2="371.8" stroke="#526273" stroke-width="1.6"/>
<line x1="336.0" y1="371.8" x2="344.0" y2="385.8" stroke="#526273" stroke-width="1.6"/>
<line x1="487.0" y1="404.5" x2="493.0" y2="390.5" stroke="#526273" stroke-width="1.6"/>
<line x1="301.0" y1="390.5" x2="309.0" y2="404.5" stroke="#526273" stroke-width="1.6"/>
<line x1="544.5" y1="423.2" x2="550.5" y2="409.2" stroke="#526273" stroke-width="1.6"/>
<line x1="266.0" y1="409.2" x2="274.0" y2="423.2" stroke="#526273" stroke-width="1.6"/>
<line x1="369.0" y1="315.0" x2="381.0" y2="315.0" stroke="#526273" stroke-width="1.6"/>
<line x1="369.0" y1="270.0" x2="381.0" y2="270.0" stroke="#526273" stroke-width="1.6"/>
<line x1="369.0" y1="225.0" x2="381.0" y2="225.0" stroke="#526273" stroke-width="1.6"/>
<g font-family="Arial, Helvetica, sans-serif" font-size="14" fill="#526273">
<text x="483" y="424">0.5</text>
<text x="278" y="384">0.5</text>
<text x="351" y="275">0</text>
</g>
<circle cx="308.7" cy="425.2" r="7" fill="#d65148" stroke="#fff" stroke-width="2.5"/>
<circle cx="357.2" cy="429.0" r="7" fill="#d65148" stroke="#fff" stroke-width="2.5"/>
<circle cx="366.0" cy="456.0" r="7" fill="#d65148" stroke="#fff" stroke-width="2.5"/>
<circle cx="407.7" cy="479.2" r="7" fill="#d65148" stroke="#fff" stroke-width="2.5"/>
<circle cx="434.6" cy="211.5" r="7" fill="#2279b2" stroke="#fff" stroke-width="2.5"/>
<circle cx="471.1" cy="241.5" r="7" fill="#2279b2" stroke="#fff" stroke-width="2.5"/>
<circle cx="520.0" cy="249.0" r="7" fill="#2279b2" stroke="#fff" stroke-width="2.5"/>
<circle cx="509.9" cy="272.2" r="7" fill="#2279b2" stroke="#fff" stroke-width="2.5"/>
</g>
<polygon points="720,195 1180,195 720,515" fill="#fce9e6"/>
<polygon points="720,515 1180,195 1180,515" fill="#e9f3fb"/>
<rect x="720" y="195" width="460" height="320" fill="none" stroke="#c8d4df" stroke-width="1.5"/>
<line x1="720" y1="515" x2="1180" y2="195" stroke="#34475b" stroke-width="3.5" stroke-dasharray="12 9"/>
<line x1="720" y1="515" x2="1193" y2="515" stroke="#34475b" stroke-width="2.5" marker-end="url(#arrow)"/>
<line x1="720" y1="515" x2="720" y2="182" stroke="#34475b" stroke-width="2.5" marker-end="url(#arrow)"/>
<g font-family="Arial, Helvetica, sans-serif" fill="#172533">
<text x="1192" y="543" font-size="20">x₁</text>
<text x="690" y="189" font-size="20">x₂</text>
<text x="760" y="391" font-size="20" font-weight="700" fill="#ad3f38">−1: x₂ &gt; x₁</text>
<text x="1000" y="356" font-size="20" font-weight="700" fill="#215f8b">+1: x₁ &gt; x₂</text>
</g>
<line x1="835.0" y1="509.0" x2="835.0" y2="521.0" stroke="#526273" stroke-width="1.6"/>
<line x1="714.0" y1="435.0" x2="726.0" y2="435.0" stroke="#526273" stroke-width="1.6"/>
<line x1="950.0" y1="509.0" x2="950.0" y2="521.0" stroke="#526273" stroke-width="1.6"/>
<line x1="714.0" y1="355.0" x2="726.0" y2="355.0" stroke="#526273" stroke-width="1.6"/>
<line x1="1065.0" y1="509.0" x2="1065.0" y2="521.0" stroke="#526273" stroke-width="1.6"/>
<line x1="714.0" y1="275.0" x2="726.0" y2="275.0" stroke="#526273" stroke-width="1.6"/>
<circle cx="789.0" cy="284.6" r="8" fill="#d65148" stroke="#fff" stroke-width="2.5"/>
<circle cx="858.0" cy="316.6" r="8" fill="#d65148" stroke="#fff" stroke-width="2.5"/>
<circle cx="931.6" cy="252.6" r="8" fill="#d65148" stroke="#fff" stroke-width="2.5"/>
<circle cx="1037.4" cy="227.0" r="8" fill="#d65148" stroke="#fff" stroke-width="2.5"/>
<circle cx="867.2" cy="483.0" r="8" fill="#2279b2" stroke="#fff" stroke-width="2.5"/>
<circle cx="982.2" cy="435.0" r="8" fill="#2279b2" stroke="#fff" stroke-width="2.5"/>
<circle cx="1060.4" cy="457.4" r="8" fill="#2279b2" stroke="#fff" stroke-width="2.5"/>
<circle cx="1101.8" cy="387.0" r="8" fill="#2279b2" stroke="#fff" stroke-width="2.5"/>
<text x="640" y="612" text-anchor="middle" font-family="Arial, Helvetica, sans-serif" font-size="19" fill="#40546a">One rule: hθ(x) = sign(0.5x₁ − 0.5x₂)</text>
</svg>
